<?xml version="1.0" encoding="utf-8"?>
<!-- Generator: Adobe Illustrator 24.0.0, SVG Export Plug-In . SVG Version: 6.00 Build 0)  -->
<svg version="1.1" id="Camada_1" xmlns="http://www.w3.org/2000/svg" xmlns:xlink="http://www.w3.org/1999/xlink" x="0px" y="0px"
	 viewBox="0 0 150 150" style="enable-background:new 0 0 150 150;" xml:space="preserve">
<style type="text/css">
	.st0{fill:#178FFC;}
	.st1{fill:#012442;}
	.st2{fill:#F29B3B;}
	.st3{fill:#D1802F;}
	.st4{fill:#C13A3A;}
	.st5{fill:#9E3232;}
	.st6{fill:#1D94ED;}
	.st7{fill:#FFFFFF;}
	.st8{fill:#AAC3D6;}
	.st9{fill:#FFD071;}
</style>
<g>
	<g>
		<circle class="st0" cx="75" cy="75" r="74.94"/>
	</g>
	<g>
		<g>
			<g>
				<g>
					<path class="st1" d="M115.1,31.99c2.32,0,4.87,1.27,7.71,4.87c6.99,8.83,0.11,13.05-4.35,16.58c-1.89,1.5-4.15,2.23-6.39,2.23
						c-3.04,0-6.05-1.34-8.09-3.91c-3.53-4.46-2.78-10.94,1.68-14.47C108.4,35.12,111.46,31.99,115.1,31.99 M115.1,27.87
						c-4.54,0-7.96,2.85-10.7,5.14c-0.43,0.36-0.86,0.71-1.27,1.04c-3.02,2.39-4.93,5.81-5.37,9.64c-0.44,3.83,0.63,7.59,3.02,10.61
						c2.75,3.48,6.87,5.47,11.31,5.47c3.23,0,6.41-1.11,8.94-3.11c0.31-0.24,0.63-0.49,0.95-0.74c3.05-2.36,7.23-5.58,7.87-10.8
						c0.42-3.46-0.85-7.11-3.8-10.82C122.66,30.04,118.98,27.87,115.1,27.87L115.1,27.87z"/>
				</g>
				<g>
					<path class="st2" d="M105.67,37.28c-4.46,3.53-5.21,10.01-1.68,14.47c3.53,4.46,10.01,5.21,14.47,1.68s11.34-7.75,4.35-16.58
						C115.49,27.6,110.13,33.75,105.67,37.28z"/>
				</g>
			</g>
			<g>
				<g>
					<path class="st1" d="M34.3,31.99c3.64,0,6.7,3.14,9.42,5.29c4.46,3.53,5.21,10.01,1.68,14.47c-2.03,2.57-5.04,3.91-8.09,3.91
						c-2.24,0-4.5-0.73-6.39-2.23c-4.46-3.53-11.34-7.75-4.35-16.58C29.43,33.26,31.98,31.99,34.3,31.99 M34.3,27.87L34.3,27.87
						c-3.88,0-7.56,2.16-10.94,6.43c-2.94,3.72-4.22,7.36-3.8,10.82c0.64,5.21,4.82,8.44,7.87,10.8c0.33,0.25,0.65,0.5,0.95,0.74
						c2.54,2.01,5.71,3.11,8.94,3.11c4.44,0,8.56-1.99,11.31-5.47c2.39-3.02,3.46-6.79,3.02-10.61c-0.44-3.83-2.35-7.25-5.37-9.64
						c-0.42-0.33-0.84-0.68-1.27-1.04C42.26,30.72,38.84,27.87,34.3,27.87L34.3,27.87z"/>
				</g>
				<g>
					<path class="st2" d="M43.72,37.28c4.46,3.53,5.21,10.01,1.68,14.47s-10.01,5.21-14.47,1.68s-11.34-7.75-4.35-16.58
						C33.91,27.6,39.26,33.75,43.72,37.28z"/>
				</g>
			</g>
			<g>
				<path class="st2" d="M115.43,80.24c-1.25-2.98-1.34-5.42-1.45-8.25c-0.11-2.95-0.24-6.3-1.68-10.73
					c-2.84-8.76-9.24-15.02-19.01-18.6c-7.66-2.8-15.28-3.11-18.23-3.09c-2.9,0.01-10.57,0.29-18.23,3.09
					c-9.78,3.58-16.17,9.84-19.02,18.6c-1.44,4.43-1.56,7.78-1.67,10.73c-0.11,2.83-0.2,5.27-1.45,8.25
					c-5.31,12.63-4.94,26.1,0.98,33.2c12.33,14.8,30.01,17.09,41.64,17.09c11.45,0,25.94-2.64,37.14-17.94
					C119.93,105.12,120.73,92.88,115.43,80.24z"/>
			</g>
			<g>
				<path class="st1" d="M85.4,115.94H66.58c-4.65,0-8.43-3.77-8.43-8.43V101c0-4.65,3.77-8.43,8.43-8.43H85.4
					c4.65,0,8.43,3.77,8.43,8.43v6.51C93.82,112.17,90.05,115.94,85.4,115.94z"/>
			</g>
			<g>
				<path class="st3" d="M115.43,80.24c-1.25-2.98-1.34-5.42-1.45-8.25c-0.11-2.95-0.24-6.3-1.68-10.73
					c-1.47-4.53-3.9-8.38-7.24-11.55c1.21,2,2.18,4.2,2.89,6.59c1.27,4.28,1.38,15.74,1.48,18.59c0.09,2.73,0.17,5.09,1.28,7.97
					c4.69,12.21,3.97,15.81-0.87,23.04c-9.9,14.78-22.69,17.33-32.81,17.33c-10.27,0-25.89-2.22-36.78-16.52
					c-5.23-6.87-5.55-11.65-0.87-23.86c1.11-2.88,1.19-5.24,1.28-7.97c0.1-2.85,0.21-14.31,1.48-18.59
					c0.71-2.38,1.67-4.56,2.87-6.55c-3.33,3.16-5.74,7-7.2,11.51c-1.44,4.43-1.56,7.78-1.67,10.73c-0.11,2.83-0.2,5.27-1.45,8.25
					c-5.31,12.63-4.94,26.1,0.98,33.2c12.33,14.8,30.01,17.09,41.64,17.09c11.45,0,25.94-2.64,37.14-17.94
					C119.93,105.12,120.73,92.88,115.43,80.24z"/>
			</g>
			<g>
				<g>
					<g>
						<g>
							<g>
								<path class="st4" d="M117.18,91.6c3.75,6.39,0.92,13.37-3.16,19.37c-5.05-0.68-9.02-5.21-9.15-10.81
									c-0.14-6.15,4.42-11.25,10.18-11.38c0.48-0.01,0.96,0.02,1.43,0.07C116.43,89.73,116.63,90.66,117.18,91.6z"/>
							</g>
						</g>
					</g>
				</g>
				<g>
					<g>
						<g>
							<path class="st5" d="M112.03,89.09c0.71-0.18,2.26-0.29,3.02-0.3c0.48-0.01,0.96,0.02,1.43,0.07
								c-0.06,0.87,0.15,1.8,0.7,2.75c3.75,6.39,0.92,13.37-3.16,19.37c-2.56-0.34-4.84-1.68-6.49-3.64
								C111.91,102.67,113.18,94.99,112.03,89.09z"/>
						</g>
					</g>
				</g>
				<g>
					<g>
						<g>
							<path class="st1" d="M113.18,111.88c0.42-0.01,0.78-0.33,0.84-0.77c0.06-0.48-0.27-0.93-0.74-0.99
								c-6.37-0.88-8.57-6.62-7.93-11.58c0.62-4.8,4.11-9.59,10.31-8.78c0.49,0.06,0.91-0.28,0.97-0.76
								c0.06-0.48-0.27-0.93-0.75-0.99c-7.39-0.98-11.53,4.65-12.26,10.3c-0.78,5.99,2.21,12.57,9.42,13.57
								C113.09,111.88,113.13,111.88,113.18,111.88z"/>
						</g>
					</g>
				</g>
			</g>
			<g>
				<g>
					<g>
						<g>
							<g>
								<path class="st4" d="M32.02,91.6c-3.75,6.39-0.92,13.37,3.16,19.37c5.05-0.68,9.02-5.21,9.15-10.81
									c0.14-6.15-4.42-11.25-10.18-11.38c-0.48-0.01-0.96,0.02-1.43,0.07C32.78,89.73,32.58,90.66,32.02,91.6z"/>
							</g>
						</g>
					</g>
				</g>
				<g>
					<g>
						<g>
							<path class="st5" d="M37.17,89.09c-0.71-0.18-2.26-0.29-3.02-0.3c-0.48-0.01-0.96,0.02-1.43,0.07
								c0.06,0.87-0.15,1.8-0.7,2.75c-3.75,6.39-0.92,13.37,3.16,19.37c2.56-0.34,4.84-1.68,6.49-3.64
								C37.3,102.67,36.03,94.99,37.17,89.09z"/>
						</g>
					</g>
				</g>
				<g>
					<g>
						<g>
							<path class="st1" d="M36.03,111.88c-0.42-0.01-0.78-0.33-0.84-0.77c-0.06-0.48,0.27-0.93,0.74-0.99
								c6.37-0.88,8.57-6.62,7.93-11.58c-0.62-4.8-4.11-9.59-10.31-8.78c-0.49,0.06-0.91-0.28-0.97-0.76
								c-0.06-0.48,0.27-0.93,0.75-0.99c7.39-0.98,11.53,4.65,12.26,10.3c0.78,5.99-2.21,12.57-9.42,13.57
								C36.12,111.88,36.08,111.88,36.03,111.88z"/>
						</g>
					</g>
				</g>
			</g>
			<g>
				<path class="st1" d="M77.31,132.6c-18.82,0-33.36-6-43.22-17.83c-6.41-7.7-6.94-21.89-1.3-35.32c1.11-2.63,1.19-4.79,1.29-7.53
					c0.12-3.08,0.25-6.58,1.77-11.28c3.05-9.39,9.87-16.09,20.27-19.89c7.56-2.77,15.11-3.2,18.93-3.22
					c2.98-0.02,10.85,0.25,18.94,3.22c10.4,3.81,17.22,10.5,20.26,19.89c1.53,4.7,1.66,8.2,1.77,11.28c0.1,2.74,0.18,4.9,1.29,7.54
					v0c5.39,12.82,4.92,26-1.22,34.37C106.85,126.46,94.16,132.6,77.31,132.6z M75.3,41.64c-0.08,0-0.15,0-0.22,0
					c-3.56,0.01-10.57,0.41-17.54,2.97c-9.15,3.35-15.13,9.17-17.77,17.3c-1.35,4.16-1.47,7.35-1.58,10.17
					c-0.11,2.9-0.21,5.65-1.61,8.97c-4.98,11.86-4.71,24.64,0.66,31.09c9.04,10.85,22.52,16.35,40.06,16.35
					c20.58,0,30.1-9.76,35.48-17.09c5.29-7.22,5.57-18.85,0.74-30.35v0c-1.4-3.33-1.5-6.07-1.61-8.97
					c-0.11-2.96-0.23-6.01-1.58-10.17c-2.64-8.13-8.62-13.95-17.77-17.3C85.16,41.88,77.73,41.64,75.3,41.64z"/>
			</g>
			<g>
				<path class="st1" d="M77.31,132.6c-18.82,0-33.36-6-43.22-17.83c-6.41-7.7-6.94-21.89-1.3-35.32c1.11-2.63,1.19-4.79,1.29-7.53
					c0.12-3.08,0.25-6.58,1.77-11.28c3.05-9.39,9.87-16.09,20.27-19.89c7.56-2.77,15.11-3.2,18.93-3.22
					c2.98-0.02,10.85,0.25,18.94,3.22c10.4,3.81,17.22,10.5,20.26,19.89c1.53,4.7,1.66,8.2,1.77,11.28c0.1,2.74,0.18,4.9,1.29,7.54
					v0c5.39,12.82,4.92,26-1.22,34.37C106.85,126.46,94.16,132.6,77.31,132.6z M75.3,41.64c-0.08,0-0.15,0-0.22,0
					c-3.56,0.01-10.57,0.41-17.54,2.97c-9.15,3.35-15.13,9.17-17.77,17.3c-1.35,4.16-1.47,7.35-1.58,10.17
					c-0.11,2.9-0.21,5.65-1.61,8.97c-4.98,11.86-4.71,24.64,0.66,31.09c9.04,10.85,22.52,16.35,40.06,16.35
					c20.58,0,30.1-9.76,35.48-17.09c5.29-7.22,5.57-18.85,0.74-30.35v0c-1.4-3.33-1.5-6.07-1.61-8.97
					c-0.11-2.96-0.23-6.01-1.58-10.17c-2.64-8.13-8.62-13.95-17.77-17.3C85.16,41.88,77.73,41.64,75.3,41.64z"/>
			</g>
			<g>
				<path class="st1" d="M52.14,67.2c-0.66,0-1.31-0.32-1.7-0.9c-0.64-0.94-0.39-2.22,0.55-2.86c0.36-0.24,8.86-5.88,17.24,0.02
					c0.93,0.65,1.15,1.94,0.5,2.87c-0.65,0.93-1.94,1.15-2.87,0.5c-6.08-4.28-12.5-0.02-12.57,0.02
					C52.94,67.08,52.54,67.2,52.14,67.2z"/>
			</g>
			<g>
				<path class="st1" d="M83.41,67.2c-0.66,0-1.31-0.32-1.7-0.9c-0.64-0.94-0.39-2.22,0.55-2.86c0.36-0.24,8.86-5.88,17.24,0.02
					c0.93,0.65,1.15,1.94,0.5,2.87c-0.65,0.93-1.94,1.15-2.87,0.5c-6.08-4.28-12.5-0.02-12.57,0.02
					C84.21,67.08,83.81,67.2,83.41,67.2z"/>
			</g>
			<g>
				<g>
					<g id="olho_7_">
						<g>
							<g>
								<g>
									<path class="st6" d="M64.86,76.98c0.01,2.9-2.34,5.27-5.24,5.28c-2.91,0.01-5.27-2.34-5.28-5.24
										c-0.01-2.91,2.34-5.27,5.25-5.28C62.48,71.73,64.85,74.08,64.86,76.98z"/>
								</g>
							</g>
						</g>
					</g>
					<g>
						<g>
							<g>
								<g>
									<g>
										<circle class="st7" cx="60.64" cy="75.42" r="1.86"/>
									</g>
								</g>
							</g>
						</g>
					</g>
				</g>
				<g id="olho_6_">
					<g>
						<g>
							<g>
								<path class="st1" d="M59.6,71.74c2.9,0,5.25,2.34,5.26,5.24c0.01,2.9-2.34,5.27-5.24,5.28c-0.01,0-0.01,0-0.02,0
									c-2.9,0-5.25-2.35-5.26-5.24c-0.01-2.91,2.34-5.27,5.25-5.28C59.58,71.74,59.59,71.74,59.6,71.74 M59.6,68.89L59.6,68.89
									h-0.03c-2.17,0.01-4.2,0.86-5.73,2.39c-1.53,1.54-2.36,3.58-2.36,5.74c0.02,4.45,3.65,8.08,8.11,8.08
									c4.5-0.02,8.12-3.66,8.11-8.14C67.69,72.52,64.05,68.89,59.6,68.89L59.6,68.89z"/>
							</g>
						</g>
					</g>
				</g>
			</g>
			<g>
				<path class="st7" d="M87.63,113.44H64.35c-1.71,0-3.09-1.38-3.09-3.09v-4.74c0-1.71,1.38,0.2,3.09,0.2h23.28
					c1.71,0,3.09-1.91,3.09-0.2v4.74C90.72,112.05,89.33,113.44,87.63,113.44z"/>
			</g>
			<g>
				<g>
					<g id="olho_9_">
						<g>
							<g>
								<g>
									<path class="st6" d="M86.42,76.98c-0.01,2.9,2.34,5.27,5.24,5.28c2.91,0.01,5.27-2.34,5.28-5.24
										c0.01-2.91-2.34-5.27-5.25-5.28C88.8,71.73,86.43,74.08,86.42,76.98z"/>
								</g>
							</g>
						</g>
					</g>
					<g>
						<g>
							<g>
								<g>
									<g>
										<circle class="st7" cx="90.65" cy="75.42" r="1.86"/>
									</g>
								</g>
							</g>
						</g>
					</g>
				</g>
				<g id="olho_8_">
					<g>
						<g>
							<g>
								<path class="st1" d="M91.69,71.74c0.01,0,0.01,0,0.02,0c2.91,0.01,5.26,2.37,5.25,5.28c-0.01,2.9-2.37,5.24-5.26,5.24
									c-0.01,0-0.01,0-0.02,0c-2.9-0.01-5.25-2.38-5.24-5.28C86.43,74.08,88.79,71.74,91.69,71.74 M91.68,68.89
									c-4.45,0-8.09,3.62-8.11,8.08c-0.01,4.47,3.61,8.12,8.11,8.14c4.46,0,8.09-3.62,8.11-8.08c0.01-2.17-0.83-4.21-2.36-5.74
									c-1.53-1.54-3.56-2.39-5.73-2.39H91.68L91.68,68.89L91.68,68.89z"/>
							</g>
						</g>
					</g>
				</g>
			</g>
			<g>
				<g>
					<g>
						<path class="st2" d="M82.91,108.23c-2.26,0-4.51-0.66-6.32-1.86l-0.52-0.34l-0.44,0.35c-1.52,1.2-3.48,1.86-5.5,1.86h-3.36
							c-6.68,0-12.12-4.85-12.12-10.81c0-5.96,5.44-10.81,12.12-10.81h18.21c6.68,0,12.12,4.85,12.12,10.81
							c0,5.96-5.44,10.81-12.12,10.81H82.91z"/>
					</g>
					<g>
						<path class="st1" d="M84.99,87.85c6.01,0,10.89,4.29,10.89,9.57c0,5.29-4.87,9.57-10.89,9.57h-2.08
							c-2.03,0-4.01-0.58-5.64-1.66l-1.26-0.83l-1.14,0.9c-1.3,1.03-2.99,1.59-4.74,1.59h-3.36c-6.01,0-10.89-4.29-10.89-9.57
							c0-5.29,4.87-9.57,10.89-9.57H84.99 M84.99,85.38H66.77c-7.36,0-13.36,5.4-13.36,12.04c0,6.64,5.99,12.04,13.36,12.04h3.36
							c2.19,0,4.3-0.68,6-1.92c2,1.26,4.33,1.92,6.78,1.92h2.08c7.36,0,13.36-5.4,13.36-12.04C98.34,90.78,92.35,85.38,84.99,85.38
							L84.99,85.38z"/>
					</g>
				</g>
				<g>
					<path class="st1" d="M79.87,92.8h-8.42c-2.43,0-4.4-1.97-4.4-4.4v-0.51c0-2.43,1.97-4.4,4.4-4.4h8.42c2.43,0,4.4,1.97,4.4,4.4
						v0.51C84.28,90.83,82.3,92.8,79.87,92.8z"/>
				</g>
				<g>
					<g>
						<circle class="st1" cx="62.12" cy="94.59" r="1.49"/>
					</g>
					<g>
						<circle class="st1" cx="62.12" cy="99.53" r="1.49"/>
					</g>
					<g>
						<circle class="st1" cx="67.06" cy="97.06" r="1.49"/>
					</g>
				</g>
				<g>
					<g>
						<circle class="st1" cx="90.1" cy="94.59" r="1.49"/>
					</g>
					<g>
						<circle class="st1" cx="90.1" cy="99.53" r="1.49"/>
					</g>
					<g>
						<circle class="st1" cx="85.16" cy="97.06" r="1.49"/>
					</g>
				</g>
			</g>
			<g>
				<path class="st1" d="M86.57,45.14H63.8c-0.96,0-1.76-0.76-1.81-1.72l-1.53-25.41c-0.05-1.03,0.77-1.9,1.81-1.9H88.1
					c1.03,0,1.86,0.87,1.81,1.9l-1.53,25.41C88.33,44.38,87.54,45.14,86.57,45.14z"/>
			</g>
			<g>
				<g>
					<path class="st1" d="M74.99,48.77c-9.31,0-17.26-1.98-22.76-3.88c-1-0.35-1.5-1.45-1.13-2.43l1.62-4.27
						c0.36-0.95,1.41-1.44,2.37-1.11c8.39,2.89,23.15,5.93,39.27-0.12c0.95-0.35,2,0.13,2.39,1.06l1.73,4.21
						c0.4,0.97-0.07,2.09-1.05,2.46C89.51,47.68,81.87,48.77,74.99,48.77z"/>
				</g>
			</g>
			<g>
				<path class="st8" d="M84.31,29.58l0.2-10.8h-7.13v11.47C79.71,30.16,82.01,29.91,84.31,29.58z"/>
			</g>
			<g>
				<path class="st8" d="M80.9,42.31c-1.16,0.19-2.33,0.32-3.51,0.36v3.94c0,0,4.29,0.03,6.74-0.72l0.06-4.14
					C83.1,42,82,42.18,80.9,42.31z"/>
			</g>
			<g>
				<path class="st4" d="M86.38,38.33c0,0-3.8,1.71-11.2,1.71c-7.4,0-11.2-1.71-11.2-1.71v-5.74c0,0,4.23,0.85,10.81,0.85
					s11.59-0.85,11.59-0.85V38.33z"/>
			</g>
		</g>
		<path class="st9" d="M47.14,45.24c0.15-0.1,0.3-0.19,0.46-0.28c-0.11-2.9-1.42-5.73-3.87-7.67c-4.46-3.53-9.81-9.68-17.14-0.43
			c-2.71,3.43-3.33,6.16-2.82,8.42c0.33-1.6,1.2-3.39,2.82-5.44c7.32-9.25,12.68-3.11,17.14,0.43
			C45.4,41.59,46.54,43.34,47.14,45.24z"/>
		<path class="st9" d="M122.79,36.86c-7.32-9.25-12.68-3.11-17.14,0.43c-2.38,1.88-3.67,4.6-3.85,7.41c0.18,0.1,0.36,0.2,0.53,0.31
			c0.62-1.8,1.71-3.46,3.32-4.73c4.46-3.53,9.81-9.68,17.14-0.43c1.62,2.05,2.49,3.84,2.82,5.44
			C126.13,43.01,125.51,40.28,122.79,36.86z"/>
	</g>
</g>
</svg>
