<?xml version="1.0" encoding="utf-8"?>
<!-- Generator: Adobe Illustrator 24.0.0, SVG Export Plug-In . SVG Version: 6.00 Build 0)  -->
<svg version="1.1" id="Camada_1" xmlns="http://www.w3.org/2000/svg" xmlns:xlink="http://www.w3.org/1999/xlink" x="0px" y="0px"
	 viewBox="0 0 150 150" style="enable-background:new 0 0 150 150;" xml:space="preserve">
<style type="text/css">
	.st0{fill:#178FFC;}
	.st1{fill:#BC8044;}
	.st2{fill:#9B6637;}
	.st3{fill:#A1E25D;}
	.st4{fill:#7EAF45;}
	.st5{fill:#012442;}
	.st6{fill:#5F8726;}
	.st7{fill:#D0FF99;}
	.st8{fill:#CCA079;}
	.st9{fill:#724422;}
</style>
<g>
	<g>
		<circle class="st0" cx="75" cy="75" r="74.94"/>
	</g>
	<g>
		<g>
			<polygon class="st1" points="25.12,102.47 76.31,124.95 76.31,73.44 25.12,49.94 			"/>
		</g>
		<g>
			<polygon class="st2" points="125.37,101.45 74.17,123.93 74.17,72.42 125.37,48.91 			"/>
		</g>
		<g>
			<path class="st3" d="M73.29,69.03c0.03-0.7,0.37-1.39,1.01-1.69c5.4-2.48,10.93-4.7,16.51-6.74c11.2-4.09,22.67-7.53,33.91-11.55
				v-5.15L75.64,23.47L25.27,43.91v26.28l48.83,22.9c0.08-1.68,0.11-3.35,0.11-5c0-5.72-0.38-11.52-1.48-17.14
				C72.56,70.14,72.83,69.49,73.29,69.03z"/>
		</g>
		<g>
			<path class="st4" d="M76.91,70.73c-0.59,5.06-0.57,11.56-0.57,17.36c0,1.3-1.29,3.68-1.34,5l49.73-21.88V48.37
				C108.75,54.01,92.36,63.68,76.91,70.73z"/>
		</g>
		<g>
			<path class="st5" d="M75,71.83c-0.37,0-0.74-0.08-1.08-0.24L24.18,48.26c-0.9-0.42-1.47-1.32-1.47-2.31
				c0-0.99,0.57-1.89,1.47-2.31l49.73-23.33c0.69-0.32,1.48-0.32,2.17,0l49.73,23.33c0.9,0.42,1.47,1.32,1.47,2.31
				c0,0.99-0.57,1.89-1.47,2.31L76.09,71.59C75.74,71.75,75.37,71.83,75,71.83z M31.29,45.95L75,66.46l43.71-20.51L75,25.45
				L31.29,45.95z"/>
		</g>
		<g>
			<path class="st5" d="M75,128.77c-0.37,0-0.74-0.08-1.08-0.24L24.18,105.2c-0.9-0.42-1.47-1.32-1.47-2.31V45.95
				c0-1.41,1.14-2.55,2.55-2.55c1.41,0,2.55,1.14,2.55,2.55v55.31L75,123.39l47.18-22.13V45.95c0-1.41,1.14-2.55,2.55-2.55
				s2.55,1.14,2.55,2.55v56.94c0,0.99-0.57,1.89-1.47,2.31l-49.73,23.33C75.74,128.69,75.37,128.77,75,128.77z"/>
		</g>
		<g>
			<path class="st5" d="M75,128.77c-1.41,0-2.55-1.14-2.55-2.55V69.28c0-1.41,1.14-2.55,2.55-2.55c1.41,0,2.55,1.14,2.55,2.55v56.94
				C77.56,127.63,76.41,128.77,75,128.77z"/>
		</g>
		<g>
			<polygon class="st3" points="89.24,76.55 81.44,80.2 81.44,73.42 89.24,69.77 			"/>
		</g>
		<g>
			<polygon class="st6" points="107.57,75.12 99.77,78.77 99.77,71.99 107.57,68.34 			"/>
		</g>
		<g>
			<polygon class="st3" points="118.48,60.63 110.68,64.27 110.68,57.49 118.48,53.84 			"/>
		</g>
		<g>
			<polygon class="st7" points="61.07,76.06 68.88,79.71 68.88,72.93 61.07,69.28 			"/>
		</g>
		<g>
			<polygon class="st4" points="41,74.52 48.81,78.17 48.81,71.39 41,67.74 			"/>
		</g>
		<g>
			<polygon class="st7" points="31.62,61.95 39.42,65.6 39.42,58.81 31.62,55.17 			"/>
		</g>
		<g>
			<polygon class="st7" points="66.69,33.36 73.49,36.53 79.73,33.3 72.92,30.12 			"/>
		</g>
		<g>
			<polygon class="st7" points="66.69,52.33 73.49,55.51 79.73,52.27 72.92,49.09 			"/>
		</g>
		<g>
			<polygon class="st4" points="46.57,44.4 54.37,48.05 61.53,44.33 53.72,40.68 			"/>
		</g>
		<g>
			<polygon class="st4" points="71.02,43.31 78.82,46.96 85.97,43.24 78.17,39.59 			"/>
		</g>
		<g>
			<polygon class="st4" points="93.58,45.98 101.39,49.63 108.54,45.92 100.74,42.27 			"/>
		</g>
		<g>
			<polygon class="st2" points="31.62,90.68 39.42,94.32 39.42,87.54 31.62,83.89 			"/>
		</g>
		<g>
			<polygon class="st2" points="56.04,107.72 63.84,111.37 63.84,104.59 56.04,100.94 			"/>
		</g>
		<g>
			<polygon class="st8" points="48.81,92.34 56.61,95.99 56.61,89.2 48.81,85.56 			"/>
		</g>
		<g>
			<polygon class="st9" points="118,91.7 110.2,95.35 110.2,88.56 118,84.92 			"/>
		</g>
		<g>
			<polygon class="st9" points="93.58,108.74 85.78,112.39 85.78,105.61 93.58,101.96 			"/>
		</g>
		<g>
			<polygon class="st1" points="102.86,94.38 95.05,98.03 95.05,91.25 102.86,87.6 			"/>
		</g>
	</g>
</g>
</svg>
